# xmcd
#
# Track frame offsets:
#	150
#	17930
#	29550
#	46867
#	66695
#	82427
#	95922
#	110447
#	126425
#	138175
#	153942
#	167277
#	182012
#	200912
#	221145
#	233945
#	250692
#	261930
#	280017
#	296492
#
# Disc length: 4254 seconds
#
# Revision: 1
# Processed by: cddbd v1.5.2PL0 Copyright (c) Steve Scherf et al.
# Submitted via: EZCDAudioConverter 8.0.2.1
#
DISCID=38109c14
DTITLE=Various Artist - The Greatest Hits Of Country Dance
DYEAR=1997
DGENRE=Traditional Country
TTITLE0=Tim McGraw - I Like I, I Love It
TTITLE1=LeAnn Rimes - Cowboy's Sweetheart
TTITLE2=Wyonna - Tell Me Why
TTITLE3=Smokin Armadillos - I'm A Cowboy
TTITLE4=Jo Dee Messina - Heads Carolina, Tails California
TTITLE5=Jeff Carson - Betty's Takin' Judo
TTITLE6=Jeff Moore - Fever
TTITLE7=Hank Williams Jnr - Hog Wild
TTITLE8=Junior Brown - Highway Patrol
TTITLE9=Sawyer Brown - Wantin' And Havin' It All
TTITLE10=Hel Ketchum - Small Town Saturday Night
TTITLE11=David Kersh - Boys Will Be Boys
TTITLE12=Boy Howdy - Love The One You're
TTITLE13=Delbert McClinton - Everytime I Roll The Dice
TTITLE14=Perfect Sranger - Cut Me Off
TTITLE15=Phillip Claypool - Mile Out Of Memphis
TTITLE16=The Judds - Don't Be Cruel
TTITLE17=Merle Haggard - Ramblin' Fever
TTITLE18=Burnin Daylight - Cut And Run
TTITLE19=Ronnie McDowell - Funky Cowboy
EXTD=
EXTT0=
EXTT1=
EXTT2=
EXTT3=
EXTT4=
EXTT5=
EXTT6=
EXTT7=
EXTT8=
EXTT9=
EXTT10=
EXTT11=
EXTT12=
EXTT13=
EXTT14=
EXTT15=
EXTT16=
EXTT17=
EXTT18=
EXTT19=
PLAYORDER=
